<svg width="416" height="24" viewBox="0 0 416 24" fill="none" xmlns="http://www.w3.org/2000/svg">
<path d="M403.125 6.375V14.625C403.124 15.8181 402.649 16.962 401.806 17.8056C400.962 18.6493 399.818 19.1238 398.625 19.125C398.426 19.125 398.235 19.046 398.095 18.9053C397.954 18.7647 397.875 18.5739 397.875 18.375C397.875 18.1761 397.954 17.9853 398.095 17.8447C398.235 17.704 398.426 17.625 398.625 17.625C399.421 17.625 400.184 17.3089 400.746 16.7463C401.309 16.1837 401.625 15.4206 401.625 14.625V13.875H396C395.602 13.875 395.221 13.717 394.939 13.4357C394.658 13.1544 394.5 12.7728 394.5 12.375V6.375C394.5 5.97718 394.658 5.59564 394.939 5.31434C395.221 5.03304 395.602 4.875 396 4.875H401.625C402.023 4.875 402.404 5.03304 402.686 5.31434C402.967 5.59564 403.125 5.97718 403.125 6.375ZM412.5 4.875H406.875C406.477 4.875 406.096 5.03304 405.814 5.31434C405.533 5.59564 405.375 5.97718 405.375 6.375V12.375C405.375 12.7728 405.533 13.1544 405.814 13.4357C406.096 13.717 406.477 13.875 406.875 13.875H412.5V14.625C412.5 15.4206 412.184 16.1837 411.621 16.7463C411.059 17.3089 410.296 17.625 409.5 17.625C409.301 17.625 409.11 17.704 408.97 17.8447C408.829 17.9853 408.75 18.1761 408.75 18.375C408.75 18.5739 408.829 18.7647 408.97 18.9053C409.11 19.046 409.301 19.125 409.5 19.125C410.693 19.1238 411.837 18.6493 412.681 17.8056C413.524 16.962 413.999 15.8181 414 14.625V6.375C414 5.97718 413.842 5.59564 413.561 5.31434C413.279 5.03304 412.898 4.875 412.5 4.875Z" fill="#0A2638"/>
</svg>
