<svg width="32" height="32" viewBox="0 0 32 32" fill="none" xmlns="http://www.w3.org/2000/svg">
<path d="M16 0C12.8355 0 9.74207 0.938383 7.11088 2.69649C4.4797 4.45459 2.42894 6.95344 1.21793 9.87706C0.00693255 12.8007 -0.309921 16.0177 0.307443 19.1214C0.924806 22.2251 2.44866 25.0761 4.6863 27.3137C6.92394 29.5513 9.77486 31.0752 12.8786 31.6926C15.9823 32.3099 19.1993 31.9931 22.1229 30.7821C25.0466 29.5711 27.5454 27.5203 29.3035 24.8891C31.0616 22.2579 32 19.1645 32 16C31.9955 11.7579 30.3084 7.69085 27.3088 4.69124C24.3092 1.69163 20.2421 0.00447972 16 0ZM19.3323 21.2831C19.4467 21.3974 19.5374 21.5332 19.5993 21.6826C19.6611 21.832 19.693 21.9921 19.693 22.1538C19.693 22.3156 19.6611 22.4757 19.5993 22.6251C19.5374 22.7745 19.4467 22.9103 19.3323 23.0246C19.218 23.139 19.0822 23.2297 18.9328 23.2916C18.7834 23.3534 18.6233 23.3853 18.4615 23.3853C18.2998 23.3853 18.1397 23.3534 17.9903 23.2916C17.8409 23.2297 17.7051 23.139 17.5908 23.0246L11.4369 16.8708C11.3225 16.7565 11.2317 16.6207 11.1698 16.4713C11.1078 16.3219 11.076 16.1617 11.076 16C11.076 15.8383 11.1078 15.6781 11.1698 15.5287C11.2317 15.3793 11.3225 15.2435 11.4369 15.1292L17.5908 8.97538C17.7051 8.86103 17.8409 8.77032 17.9903 8.70844C18.1397 8.64655 18.2998 8.6147 18.4615 8.6147C18.6233 8.6147 18.7834 8.64655 18.9328 8.70844C19.0822 8.77032 19.218 8.86103 19.3323 8.97538C19.4467 9.08973 19.5374 9.22549 19.5993 9.37489C19.6611 9.5243 19.693 9.68443 19.693 9.84615C19.693 10.0079 19.6611 10.168 19.5993 10.3174C19.5374 10.4668 19.4467 10.6026 19.3323 10.7169L14.0477 16L19.3323 21.2831Z" fill="white"/>
</svg>
